<?xml version="1.0" encoding="UTF-8" standalone="no"?>
<!-- Created with Inkscape (http://www.inkscape.org/) -->
<svg xmlns:svg="http://www.w3.org/2000/svg" xmlns="http://www.w3.org/2000/svg" xmlns:xlink="http://www.w3.org/1999/xlink" version="1.0" width="800" height="1042.04" viewBox="0 0 800 964.938" id="Layer_1" xml:space="preserve"><defs id="defs316"/>
































































<g transform="matrix(1.16377, 0, 0, 1.16377, -65.9442, -119.478)" id="g2182"><g id="g3">
	<g id="g5">
		<g id="g7">
			<rect width="673.44202" height="673.43597" x="63.652" y="76.526001" id="rect9"/>
		</g>
	</g>
</g><g id="g11">
	<defs id="defs13">
		<rect width="673.44202" height="673.43597" x="63.652" y="76.526001" id="XMLID_1_"/>
	</defs>
	<clipPath id="XMLID_17_">
		<use id="use17" x="0" y="0" width="800" height="964.93799" xlink:href="#XMLID_1_"/>
	</clipPath>
	<polyline id="polyline19" points="628.331,807.175 643.638,795.643 625.397,771.444 643.679,757.673 634.624,745.664 616.341,759.42 608.781,749.375 628.277,734.69 618.859,722.161 584.029,748.407 628.331,807.175" clip-path="url(#XMLID_17_)" style="fill: rgb(51, 51, 51);"/>
	<polyline id="polyline21" points="668.805,776.671 704.379,749.88 694.942,737.365 674.695,752.637 665.884,740.927 684.153,727.169 675.097,715.145 656.83,728.916 649.254,718.884 668.764,704.171 659.333,691.669 624.517,717.903 668.805,776.671" clip-path="url(#XMLID_17_)" style="fill: rgb(51, 51, 51);"/>
	<polyline id="polyline23" points="732.55,728.643 747.856,717.125 703.568,658.34 688.247,669.874 732.55,728.643" clip-path="url(#XMLID_17_)" style="fill: rgb(51, 51, 51);"/>
	<path d="M 761.061,641.594 C 751.576,628.996 741.736,627.768 728.401,637.814 C 715.476,647.544 714.049,658.819 722.975,670.692 C 738.671,691.52 758.366,667.649 767.114,679.251 C 769.53,682.458 769.592,686.292 766.46,688.654 C 763.498,690.879 760.072,690.619 756.285,685.596 L 755.221,684.204 L 740.406,695.354 L 741.962,697.416 C 751.14,709.604 761.513,708.635 774.186,699.08 C 787.692,688.899 790.79,677.789 781.372,665.287 C 765.172,643.791 744.433,668.331 735.684,656.716 C 733.699,654.082 733.255,650.424 736.55,647.941 C 739.512,645.703 743.095,647.531 745.689,650.985 L 746.74,652.377 L 761.061,641.594" style="fill: rgb(51, 51, 51);" clip-path="url(#XMLID_17_)" id="path25"/>
	<polyline id="polyline27" points="460.764,804.118 476.084,792.572 457.843,768.374 476.111,754.602 467.049,742.579 448.787,756.349 441.212,746.318 460.723,731.618 451.285,719.103 416.475,745.334 460.764,804.118" clip-path="url(#XMLID_17_)" style="fill: rgb(51, 51, 51);"/>
	<polyline id="polyline29" points="501.251,773.615 536.806,746.823 527.375,734.293 507.134,749.553 498.317,737.87 516.6,724.112 507.544,712.087 489.262,725.86 481.701,715.8 501.197,701.101 491.773,688.599 456.949,714.831 501.251,773.615" clip-path="url(#XMLID_17_)" style="fill: rgb(51, 51, 51);"/>
</g><polyline id="polyline31" points="564.983,725.572 580.296,714.04 535.994,655.256 520.694,666.802 564.983,725.572" style="fill: rgb(51, 51, 51);"/><path d="M 593.508,638.537 C 584.015,625.927 574.175,624.698 560.847,634.744 C 547.914,644.488 546.475,655.762 555.408,667.622 C 571.103,688.435 590.812,664.564 599.547,676.166 C 601.977,679.388 602.018,683.208 598.886,685.57 C 595.923,687.808 592.498,687.549 588.725,682.525 L 587.667,681.133 L 572.852,692.298 L 574.401,694.359 C 583.587,706.533 593.953,705.564 606.631,696.01 C 620.129,685.842 623.235,674.718 613.797,662.203 C 597.615,640.72 576.878,665.26 568.129,653.659 C 566.143,651.011 565.693,647.353 568.996,644.869 C 571.958,642.644 575.519,644.46 578.133,647.927 L 579.185,649.319 L 593.508,638.537" style="fill: rgb(51, 51, 51);" id="path33"/><polyline id="polyline35" points="632.903,674.391 648.224,662.858 629.983,638.66 648.265,624.888 639.208,612.877 620.927,626.635 613.353,616.604 632.863,601.905 623.446,589.376 588.615,615.621 632.903,674.391" style="fill: rgb(51, 51, 51);"/><g id="g37">
	<defs id="defs39">
		<rect width="673.44202" height="673.43597" x="63.652" y="76.526001" id="XMLID_3_"/>
	</defs>
	<clipPath id="XMLID_18_">
		<use id="use43" x="0" y="0" width="800" height="964.93799" xlink:href="#XMLID_3_"/>
	</clipPath>
	<polyline id="polyline45" points="673.391,643.901 708.945,617.096 699.528,604.58 679.274,619.852 670.457,608.142 688.739,594.384 679.683,582.36 661.402,596.146 653.84,586.1 673.35,571.387 663.919,558.885 629.103,585.118 673.391,643.901" clip-path="url(#XMLID_18_)" style="fill: rgb(51, 51, 51);"/>
	<polyline id="polyline47" points="737.135,595.858 752.442,584.34 708.154,525.556 692.833,537.089 737.135,595.858" clip-path="url(#XMLID_18_)" style="fill: rgb(51, 51, 51);"/>
	<path d="M 765.648,508.809 C 756.155,496.212 746.321,494.984 732.987,505.03 C 720.054,514.76 718.615,526.034 727.561,537.908 C 743.257,558.735 762.952,534.865 771.7,546.465 C 774.116,549.674 774.171,553.508 771.046,555.869 C 768.077,558.107 764.657,557.835 760.87,552.811 L 759.807,551.419 L 744.991,562.57 L 746.541,564.644 C 755.727,576.818 766.099,575.849 778.771,566.295 C 792.269,556.112 795.375,545.004 785.958,532.501 C 769.758,511.005 749.018,535.545 740.27,523.944 C 738.284,521.296 737.834,517.638 741.137,515.154 C 744.098,512.916 747.66,514.745 750.274,518.198 L 751.326,519.603 L 765.648,508.809" style="fill: rgb(51, 51, 51);" clip-path="url(#XMLID_18_)" id="path49"/>
	<path d="M 292.453,736.054 C 282.947,723.444 273.12,722.215 259.779,732.274 C 246.861,742.005 245.421,753.292 254.354,765.138 C 270.049,785.966 289.744,762.095 298.493,773.696 C 300.909,776.903 300.963,780.754 297.831,783.1 C 294.869,785.338 291.443,785.066 287.656,780.056 L 286.612,778.651 L 271.797,789.815 L 273.346,791.877 C 282.532,804.065 292.884,803.082 305.563,793.541 C 319.061,783.36 322.179,772.236 312.749,759.734 C 296.549,738.253 275.81,762.778 267.061,751.176 C 265.075,748.543 264.639,744.87 267.928,742.387 C 270.89,740.162 274.466,741.978 277.066,745.445 L 278.13,746.851 L 292.453,736.054" style="fill: rgb(51, 51, 51);" clip-path="url(#XMLID_18_)" id="path51"/>
	<polyline id="polyline53" points="331.849,771.922 347.169,760.389 328.928,736.177 347.196,722.419 338.14,710.395 319.858,724.167 312.297,714.122 331.807,699.422 322.376,686.907 287.56,713.153 331.849,771.922" clip-path="url(#XMLID_18_)" style="fill: rgb(51, 51, 51);"/>
</g><polyline id="polyline55" points="372.336,741.404 407.89,714.613 398.459,702.111 378.219,717.37 369.402,705.673 387.684,691.902 378.628,679.892 360.346,693.663 352.785,683.618 372.282,668.918 362.864,656.403 328.034,682.635 372.336,741.404" style="fill: rgb(51, 51, 51);"/><polyline id="polyline57" points="436.067,693.39 451.387,681.843 407.099,623.073 391.778,634.62 436.067,693.39" style="fill: rgb(51, 51, 51);"/><path d="M 464.592,606.327 C 455.1,593.743 445.266,592.514 431.932,602.56 C 419,612.291 417.567,623.565 426.494,635.424 C 442.189,656.252 461.884,632.381 470.633,643.982 C 473.049,647.204 473.103,651.025 469.978,653.386 C 467.009,655.624 463.591,655.365 459.817,650.343 L 458.752,648.937 L 443.937,660.101 L 445.486,662.163 C 454.672,674.337 465.044,673.368 477.716,663.814 C 491.221,653.66 494.32,642.523 484.888,630.02 C 468.701,608.524 447.949,633.064 439.214,621.462 C 437.214,618.829 436.785,615.171 440.081,612.673 C 443.042,610.435 446.604,612.277 449.205,615.717 L 450.269,617.122 L 464.592,606.327" style="fill: rgb(51, 51, 51);" id="path59"/><polyline id="polyline61" points="504.002,642.208 519.309,630.662 501.067,606.476 519.335,592.692 510.28,580.667 492.012,594.454 484.437,584.408 503.947,569.695 494.516,557.193 459.7,583.425 504.002,642.208" style="fill: rgb(51, 51, 51);"/><polyline id="polyline63" points="544.476,611.705 580.037,584.913 570.613,572.397 550.365,587.642 541.542,575.959 559.823,562.203 550.768,550.178 532.486,563.949 524.924,553.904 544.435,539.205 535.004,526.689 500.187,552.935 544.476,611.705" style="fill: rgb(51, 51, 51);"/><polyline id="polyline65" points="608.22,563.676 623.528,552.129 579.238,493.359 563.918,504.893 608.22,563.676" style="fill: rgb(51, 51, 51);"/><path d="M 636.732,476.627 C 627.246,464.028 617.406,462.787 604.072,472.832 C 591.146,482.577 589.707,493.851 598.647,505.71 C 614.342,526.525 634.036,502.654 642.786,514.269 C 645.201,517.476 645.242,521.312 642.13,523.659 C 639.168,525.897 635.743,525.651 631.955,520.615 L 630.891,519.223 L 616.077,530.387 L 617.633,532.435 C 626.812,544.623 637.185,543.654 649.857,534.1 C 663.362,523.932 666.461,512.822 657.043,500.292 C 640.842,478.81 620.105,503.363 611.355,491.748 C 609.37,489.115 608.926,485.442 612.222,482.973 C 615.183,480.736 618.753,482.563 621.36,486.017 L 622.411,487.409 L 636.732,476.627" style="fill: rgb(51, 51, 51);" id="path67"/><g id="g69">
	<defs id="defs71">
		<rect width="673.44202" height="673.43597" x="63.652" y="76.526001" id="XMLID_5_"/>
	</defs>
	<clipPath id="XMLID_19_">
		<use id="use75" x="0" y="0" width="800" height="964.93799" xlink:href="#XMLID_5_"/>
	</clipPath>
	<polyline id="polyline77" points="676.148,512.48 691.448,500.948 673.213,476.75 691.489,462.978 682.433,450.968 664.151,464.725 656.59,454.694 676.087,439.995 666.669,427.479 631.838,453.711 676.148,512.48" clip-path="url(#XMLID_19_)" style="fill: rgb(51, 51, 51);"/>
	<polyline id="polyline79" points="716.623,481.991 752.19,455.199 742.752,442.669 722.504,457.942 713.702,446.245 731.963,432.489 722.908,420.464 704.639,434.235 697.064,424.19 716.582,409.477 707.144,396.975 672.334,423.221 716.623,481.991" clip-path="url(#XMLID_19_)" style="fill: rgb(51, 51, 51);"/>
	<polyline id="polyline81" points="780.367,433.949 795.667,422.429 751.377,363.66 736.058,375.178 780.367,433.949" clip-path="url(#XMLID_19_)" style="fill: rgb(51, 51, 51);"/>
	<polyline id="polyline83" points="96.367,820.032 111.673,808.486 67.384,749.73 52.064,761.249 96.367,820.032" clip-path="url(#XMLID_19_)" style="fill: rgb(51, 51, 51);"/>
	<path d="M 124.878,732.983 C 115.393,720.386 105.552,719.144 92.218,729.189 C 79.293,738.934 77.853,750.208 86.793,762.068 C 102.489,782.896 122.184,759.025 130.932,770.626 C 133.348,773.833 133.396,777.683 130.264,780.03 C 127.316,782.254 123.877,782.009 120.102,776.972 L 119.038,775.58 L 104.223,786.744 L 105.779,788.805 C 114.957,800.993 125.33,800.01 138.003,790.47 C 151.508,780.287 154.607,769.179 145.175,756.65 C 128.988,735.18 108.249,759.72 99.501,748.106 C 97.515,745.471 97.071,741.8 100.368,739.33 C 103.329,737.092 106.898,738.921 109.505,742.374 L 110.556,743.766 L 124.878,732.983" style="fill: rgb(51, 51, 51);" clip-path="url(#XMLID_19_)" id="path85"/>
	<polyline id="polyline87" points="164.295,768.851 179.595,757.318 161.36,733.106 179.636,719.335 170.58,707.325 152.305,721.082 144.744,711.05 164.254,696.351 154.816,683.836 119.985,710.082 164.295,768.851" clip-path="url(#XMLID_19_)" style="fill: rgb(51, 51, 51);"/>
</g><polyline id="polyline89" points="204.769,738.347 240.336,711.556 230.898,699.04 210.651,714.299 201.848,702.616 220.109,688.844 211.054,676.82 192.792,690.592 185.218,680.546 204.728,665.861 195.29,653.332 160.48,679.578 204.769,738.347" style="fill: rgb(51, 51, 51);"/><polyline id="polyline91" points="268.514,690.319 283.813,678.786 239.524,620.002 224.218,631.549 268.514,690.319" style="fill: rgb(51, 51, 51);"/><path d="M 297.025,603.269 C 287.533,590.659 277.692,589.43 264.358,599.49 C 251.447,609.221 250.007,620.508 258.94,632.354 C 274.635,653.182 294.323,629.311 303.072,640.912 C 305.495,644.119 305.549,647.969 302.417,650.316 C 299.456,652.554 296.03,652.281 292.242,647.271 L 291.191,645.867 L 276.369,657.031 L 277.918,659.092 C 287.096,671.28 297.469,670.297 310.148,660.757 C 323.647,650.575 326.751,639.451 317.327,626.95 C 301.133,605.467 280.388,629.994 271.639,618.392 C 269.66,615.757 269.223,612.086 272.505,609.603 C 275.467,607.377 279.05,609.193 281.65,612.66 L 282.708,614.065 L 297.025,603.269" style="fill: rgb(51, 51, 51);" id="path93"/><polyline id="polyline95" points="336.435,639.138 351.748,627.604 333.514,603.392 351.782,589.634 342.726,577.612 324.444,591.381 316.883,581.336 336.394,566.638 326.956,554.123 292.146,580.368 336.435,639.138" style="fill: rgb(51, 51, 51);"/><polyline id="polyline97" points="376.908,608.633 412.476,581.829 403.045,569.326 382.791,584.585 373.988,572.888 392.27,559.117 383.214,547.106 364.932,560.878 357.357,550.833 376.868,536.134 367.443,523.618 332.62,549.849 376.908,608.633" style="fill: rgb(51, 51, 51);"/><polyline id="polyline99" points="440.653,560.605 455.966,549.058 411.664,490.289 396.364,501.835 440.653,560.605" style="fill: rgb(51, 51, 51);"/><path d="M 469.178,473.542 C 459.685,460.958 449.845,459.729 436.517,469.775 C 423.585,479.506 422.145,490.793 431.078,502.639 C 446.773,523.467 466.461,499.596 475.217,511.197 C 477.633,514.419 477.687,518.239 474.555,520.601 C 471.594,522.839 468.167,522.58 464.38,517.556 L 463.337,516.164 L 448.522,527.315 L 450.071,529.376 C 459.256,541.551 469.608,540.581 482.301,531.027 C 495.785,520.873 498.905,509.75 489.473,497.234 C 473.286,475.738 452.534,500.278 443.785,488.676 C 441.799,486.042 441.362,482.37 444.652,479.887 C 447.613,477.648 451.189,479.491 453.789,482.931 L 454.854,484.35 L 469.178,473.542" style="fill: rgb(51, 51, 51);" id="path101"/><polyline id="polyline103" points="508.574,509.424 523.894,497.877 505.653,473.692 523.922,459.908 514.866,447.883 496.598,461.668 489.023,451.623 508.533,436.91 499.102,424.408 464.285,450.641 508.574,509.424" style="fill: rgb(51, 51, 51);"/><polyline id="polyline105" points="549.061,478.919 584.616,452.127 575.199,439.612 554.944,454.872 546.127,443.174 564.409,429.417 555.354,417.393 537.072,431.165 529.511,421.119 549.021,406.419 539.589,393.904 504.759,420.15 549.061,478.919" style="fill: rgb(51, 51, 51);"/><polyline id="polyline107" points="612.792,430.891 628.113,419.344 583.824,360.575 568.503,372.108 612.792,430.891" style="fill: rgb(51, 51, 51);"/><path d="M 641.318,343.842 C 631.826,331.245 621.992,330.003 608.658,340.062 C 595.726,349.793 594.293,361.066 603.22,372.927 C 618.915,393.74 638.622,369.869 647.371,381.484 C 649.787,384.692 649.827,388.527 646.702,390.888 C 643.734,393.113 640.315,392.867 636.542,387.831 L 635.477,386.438 L 620.662,397.603 L 622.211,399.65 C 631.397,411.838 641.77,410.869 654.441,401.315 C 667.939,391.148 671.045,380.038 661.614,367.508 C 645.427,346.026 624.688,370.565 615.94,358.964 C 613.954,356.33 613.509,352.659 616.806,350.174 C 619.768,347.949 623.33,349.778 625.944,353.232 L 626.995,354.624 L 641.318,343.842" style="fill: rgb(51, 51, 51);" id="path109"/><g id="g111">
	<defs id="defs113">
		<rect width="673.44202" height="673.43597" x="63.652" y="76.526001" id="XMLID_7_"/>
	</defs>
	<clipPath id="XMLID_20_">
		<use id="use117" x="0" y="0" width="800" height="964.93799" xlink:href="#XMLID_7_"/>
	</clipPath>
	<polyline id="polyline119" points="680.727,379.71 696.034,368.164 677.792,343.965 696.075,330.193 687.019,318.183 668.737,331.941 661.176,321.909 680.672,307.21 671.255,294.694 636.424,320.926 680.727,379.71" clip-path="url(#XMLID_20_)" style="fill: rgb(51, 51, 51);"/>
	<polyline id="polyline121" points="721.201,349.206 756.776,322.414 747.338,309.885 727.091,325.144 718.281,313.461 736.548,299.703 727.494,287.679 709.225,301.451 701.651,291.405 721.16,276.692 711.729,264.19 676.913,290.436 721.201,349.206" clip-path="url(#XMLID_20_)" style="fill: rgb(51, 51, 51);"/>
	<polyline id="polyline123" points="75.854,706.165 111.421,679.359 101.99,666.843 81.736,682.102 72.933,670.406 91.201,656.648 82.146,644.625 63.877,658.396 56.302,648.364 75.813,633.651 66.375,621.149 31.564,647.381 75.854,706.165" clip-path="url(#XMLID_20_)" style="fill: rgb(51, 51, 51);"/>
</g><polyline id="polyline125" points="139.598,658.123 154.898,646.59 110.609,587.82 95.309,599.353 139.598,658.123" style="fill: rgb(51, 51, 51);"/><path d="M 168.109,571.073 C 158.617,558.476 148.776,557.248 135.449,567.293 C 122.517,577.024 121.091,588.298 130.023,600.172 C 145.719,620.999 165.406,597.102 174.162,608.717 C 176.578,611.937 176.633,615.773 173.5,618.133 C 170.539,620.358 167.113,620.099 163.325,615.075 L 162.282,613.683 L 147.453,624.834 L 149.002,626.908 C 158.188,639.082 168.553,638.113 181.232,628.546 C 194.731,618.378 197.836,607.269 188.419,594.752 C 172.218,573.271 151.479,597.81 142.731,586.208 C 140.745,583.562 140.294,579.903 143.598,577.419 C 146.559,575.181 150.136,577.01 152.735,580.463 L 153.8,581.855 L 168.109,571.073" style="fill: rgb(51, 51, 51);" id="path127"/><polyline id="polyline129" points="207.519,606.941 222.826,595.409 204.585,571.21 222.867,557.424 213.811,545.415 195.529,559.186 187.968,549.14 207.478,534.442 198.047,521.925 163.23,548.157 207.519,606.941" style="fill: rgb(51, 51, 51);"/><polyline id="polyline131" points="247.993,576.437 283.561,549.645 274.129,537.144 253.875,552.402 245.072,540.707 263.341,526.935 254.285,514.911 236.017,528.682 228.442,518.65 247.952,503.951 238.521,491.421 203.704,517.667 247.993,576.437" style="fill: rgb(51, 51, 51);"/><polyline id="polyline133" points="311.738,528.422 327.058,516.876 282.756,458.106 267.449,469.639 311.738,528.422" style="fill: rgb(51, 51, 51);"/><path d="M 340.263,441.36 C 330.757,428.762 320.937,427.52 307.602,437.579 C 294.67,447.31 293.237,458.599 302.163,470.444 C 317.859,491.272 337.554,467.401 346.302,479.015 C 348.718,482.209 348.773,486.058 345.647,488.405 C 342.679,490.643 339.259,490.384 335.472,485.362 L 334.421,483.956 L 319.606,495.121 L 321.155,497.182 C 330.34,509.37 340.699,508.387 353.371,498.847 C 366.869,488.665 369.988,477.556 360.558,465.039 C 344.357,443.558 323.618,468.097 314.87,456.482 C 312.884,453.848 312.454,450.176 315.737,447.706 C 318.698,445.468 322.275,447.297 324.874,450.75 L 325.939,452.156 L 340.263,441.36" style="fill: rgb(51, 51, 51);" id="path135"/><polyline id="polyline137" points="379.659,477.241 394.979,465.695 376.738,441.482 395.006,427.725 385.951,415.7 367.682,429.472 360.107,419.426 379.618,404.727 370.187,392.226 335.37,418.458 379.659,477.241" style="fill: rgb(51, 51, 51);"/><polyline id="polyline139" points="420.146,446.723 455.707,419.931 446.269,407.416 426.036,422.674 417.212,410.992 435.494,397.207 426.438,385.21 408.156,398.968 400.595,388.922 420.092,374.224 410.674,361.708 375.844,387.939 420.146,446.723" style="fill: rgb(51, 51, 51);"/><polyline id="polyline141" points="483.877,398.695 499.198,387.162 454.909,328.378 439.588,339.925 483.877,398.695" style="fill: rgb(51, 51, 51);"/><path d="M 512.402,311.646 C 502.916,299.048 493.076,297.82 479.741,307.865 C 466.816,317.61 465.376,328.884 474.302,340.73 C 489.998,361.558 509.706,337.687 518.441,349.288 C 520.87,352.496 520.918,356.33 517.786,358.692 C 514.825,360.93 511.412,360.657 507.625,355.648 L 506.561,354.243 L 491.746,365.421 L 493.302,367.468 C 502.48,379.656 512.853,378.673 525.526,369.133 C 539.031,358.965 542.129,347.828 532.698,335.326 C 516.511,313.844 495.772,338.369 487.023,326.768 C 485.037,324.134 484.594,320.462 487.89,317.978 C 490.852,315.753 494.414,317.582 497.028,321.035 L 498.079,322.441 L 512.402,311.646" style="fill: rgb(51, 51, 51);" id="path143"/><polyline id="polyline145" points="551.804,347.514 567.119,335.981 548.884,311.782 567.16,298.011 558.104,285.987 539.822,299.758 532.247,289.727 551.757,275.014 542.34,262.498 507.509,288.744 551.804,347.514" style="fill: rgb(51, 51, 51);"/><polyline id="polyline147" points="592.292,317.023 627.846,290.204 618.422,277.702 598.175,292.961 589.372,281.265 607.634,267.493 598.578,255.483 580.317,269.24 572.735,259.209 592.246,244.509 582.814,232.007 547.997,258.24 592.292,317.023" style="fill: rgb(51, 51, 51);"/><polyline id="polyline149" points="656.038,268.981 671.337,257.448 627.049,198.665 611.728,210.211 656.038,268.981" style="fill: rgb(51, 51, 51);"/><g id="g151">
	<defs id="defs153">
		<rect width="673.44202" height="673.43597" x="63.652" y="76.526001" id="XMLID_9_"/>
	</defs>
	<clipPath id="XMLID_21_">
		<use id="use157" x="0" y="0" width="800" height="964.93799" xlink:href="#XMLID_9_"/>
	</clipPath>
	<path d="M 684.542,181.932 C 675.057,169.334 665.215,168.106 651.881,178.151 C 638.956,187.883 637.53,199.156 646.462,211.016 C 662.158,231.844 681.847,207.973 690.595,219.574 C 693.017,222.795 693.072,226.616 689.94,228.977 C 686.978,231.202 683.552,230.956 679.764,225.934 L 678.701,224.528 L 663.891,235.692 L 665.441,237.753 C 674.62,249.927 684.993,248.972 697.671,239.405 C 711.169,229.237 714.275,218.127 704.851,205.612 C 688.657,184.116 667.912,208.655 659.163,197.041 C 657.183,194.421 656.732,190.749 660.029,188.265 C 662.991,186.041 666.574,187.869 669.174,191.323 L 670.217,192.729 L 684.542,181.932" style="fill: rgb(51, 51, 51);" clip-path="url(#XMLID_21_)" id="path159"/>
	<polyline id="polyline161" points="723.958,217.8 739.258,206.253 721.023,182.068 739.306,168.284 730.244,156.259 711.968,170.044 704.408,159.999 723.917,145.3 714.48,132.784 679.656,159.017 723.958,217.8" clip-path="url(#XMLID_21_)" style="fill: rgb(51, 51, 51);"/>
	<polyline id="polyline163" points="764.432,187.295 800,160.504 790.569,147.989 770.315,163.234 761.511,151.551 779.78,137.793 770.717,125.769 752.457,139.54 744.881,129.508 764.391,114.795 754.954,102.28 720.144,128.526 764.432,187.295" clip-path="url(#XMLID_21_)" style="fill: rgb(51, 51, 51);"/>
	<polyline id="polyline165" points="80.439,573.379 115.993,546.575 106.569,534.059 86.322,549.318 77.505,537.621 95.78,523.863 86.724,511.84 68.449,525.625 60.888,515.566 80.398,500.867 70.96,488.364 36.15,514.596 80.439,573.379" clip-path="url(#XMLID_21_)" style="fill: rgb(51, 51, 51);"/>
</g><polyline id="polyline167" points="144.184,525.338 159.484,513.804 115.195,455.036 99.875,466.568 144.184,525.338" style="fill: rgb(51, 51, 51);"/><path d="M 172.695,438.29 C 163.202,425.691 153.362,424.463 140.028,434.509 C 127.103,444.24 125.663,455.527 134.61,467.388 C 150.305,488.215 169.993,464.33 178.742,475.931 C 181.164,479.153 181.205,482.988 178.087,485.349 C 175.125,487.574 171.7,487.314 167.912,482.292 L 166.847,480.899 L 152.039,492.049 L 153.588,494.123 C 162.766,506.298 173.139,505.328 185.818,495.774 C 199.316,485.593 202.421,474.483 192.997,461.967 C 176.804,440.486 156.058,465.025 147.309,453.423 C 145.33,450.775 144.88,447.118 148.176,444.634 C 151.145,442.395 154.707,444.224 157.321,447.678 L 158.365,449.07 L 172.695,438.29" style="fill: rgb(51, 51, 51);" id="path169"/><polyline id="polyline171" points="212.104,474.157 227.404,462.625 209.17,438.424 227.452,424.64 218.39,412.63 200.115,426.401 192.553,416.356 212.05,401.656 202.626,389.141 167.802,415.373 212.104,474.157" style="fill: rgb(51, 51, 51);"/><polyline id="polyline173" points="252.579,443.653 288.146,416.861 278.715,404.358 258.461,419.618 249.658,407.921 267.926,394.15 258.871,382.125 240.603,395.896 233.028,385.865 252.538,371.166 243.101,358.637 208.291,384.883 252.579,443.653" style="fill: rgb(51, 51, 51);"/><polyline id="polyline175" points="316.323,395.638 331.623,384.091 287.334,325.322 272.035,336.854 316.323,395.638" style="fill: rgb(51, 51, 51);"/><path d="M 344.835,308.575 C 335.342,295.977 325.516,294.736 312.174,304.795 C 299.256,314.526 297.816,325.813 306.749,337.66 C 322.444,358.501 342.132,334.617 350.888,346.231 C 353.304,349.439 353.358,353.274 350.226,355.621 C 347.264,357.859 343.838,357.6 340.051,352.578 L 339.007,351.172 L 324.192,362.336 L 325.741,364.397 C 334.913,376.585 345.279,375.616 357.958,366.062 C 371.456,355.88 374.574,344.77 365.137,332.255 C 348.944,310.772 328.205,335.312 319.456,323.697 C 317.471,321.077 317.034,317.392 320.323,314.922 C 323.285,312.684 326.861,314.512 329.461,317.965 L 330.525,319.371 L 344.835,308.575" style="fill: rgb(51, 51, 51);" id="path177"/><polyline id="polyline179" points="384.244,344.456 399.564,332.91 381.324,308.698 399.592,294.94 390.536,282.916 372.254,296.701 364.693,286.642 384.203,271.942 374.772,259.441 339.956,285.673 384.244,344.456" style="fill: rgb(51, 51, 51);"/><polyline id="polyline181" points="424.732,313.939 460.286,287.147 450.855,274.631 430.601,289.89 421.798,278.207 440.08,264.423 431.024,252.425 412.742,266.183 405.167,256.138 424.678,241.439 415.26,228.923 380.43,255.156 424.732,313.939" style="fill: rgb(51, 51, 51);"/><polyline id="polyline183" points="488.463,265.91 503.783,254.377 459.474,195.594 444.174,207.14 488.463,265.91" style="fill: rgb(51, 51, 51);"/><path d="M 516.988,178.861 C 507.496,166.278 497.663,165.035 484.328,175.081 C 471.396,184.812 469.956,196.099 478.89,207.946 C 494.585,228.774 514.28,204.903 523.029,216.504 C 525.445,219.712 525.499,223.546 522.367,225.908 C 519.405,228.146 515.987,227.874 512.213,222.865 L 511.148,221.459 L 496.333,232.637 L 497.882,234.684 C 507.068,246.872 517.44,245.889 530.112,236.349 C 543.61,226.182 546.716,215.044 537.284,202.542 C 521.097,181.059 500.359,205.585 491.611,193.984 C 489.611,191.35 489.174,187.678 492.464,185.194 C 495.44,182.969 499.002,184.784 501.602,188.251 L 502.666,189.657 L 516.988,178.861" style="fill: rgb(51, 51, 51);" id="path185"/><polyline id="polyline187" points="556.384,214.729 571.704,203.196 553.463,178.997 571.745,165.226 562.676,153.203 544.408,166.974 536.833,156.942 556.343,142.229 546.925,129.713 512.095,155.959 556.384,214.729" style="fill: rgb(51, 51, 51);"/><g id="g189">
	<defs id="defs191">
		<rect width="673.44202" height="673.43597" x="63.652" y="76.526001" id="XMLID_11_"/>
	</defs>
	<clipPath id="XMLID_22_">
		<use id="use195" x="0" y="0" width="800" height="964.93799" xlink:href="#XMLID_11_"/>
	</clipPath>
	<polyline id="polyline197" points="596.873,184.239 632.425,157.419 623.008,144.917 602.761,160.176 593.938,148.48 612.219,134.709 603.164,122.698 584.881,136.469 577.321,126.424 596.832,111.725 587.4,99.209 552.583,125.455 596.873,184.239" clip-path="url(#XMLID_22_)" style="fill: rgb(51, 51, 51);"/>
	<polyline id="polyline199" points="660.617,136.196 675.923,124.664 631.634,65.88 616.314,77.426 660.617,136.196" clip-path="url(#XMLID_22_)" style="fill: rgb(51, 51, 51);"/>
	<path d="M 689.127,49.147 C 679.642,36.549 669.802,35.321 656.467,45.366 C 643.542,55.111 642.103,66.371 651.042,78.245 C 666.737,99.058 686.432,75.187 695.181,86.789 C 697.597,90.01 697.638,93.831 694.511,96.193 C 691.55,98.417 688.138,98.172 684.351,93.15 L 683.286,91.744 L 668.472,102.908 L 670.028,104.97 C 679.207,117.144 689.58,116.189 702.253,106.621 C 715.757,96.453 718.856,85.343 709.425,72.828 C 693.237,51.332 672.499,75.871 663.75,64.27 C 661.765,61.636 661.321,57.978 664.616,55.481 C 667.578,53.256 671.14,55.085 673.755,58.538 L 674.806,59.944 L 689.127,49.147" style="fill: rgb(51, 51, 51);" clip-path="url(#XMLID_22_)" id="path201"/>
	<polyline id="polyline203" points="728.544,85.015 743.843,73.469 725.603,49.284 743.884,35.499 734.83,23.475 716.547,37.26 708.972,27.214 728.496,12.515 719.065,0 684.235,26.232 728.544,85.015" clip-path="url(#XMLID_22_)" style="fill: rgb(51, 51, 51);"/>
	<path d="M 43.78,406.106 C 34.288,393.508 24.447,392.267 11.119,402.312 C -1.812,412.057 -3.252,423.33 5.694,435.177 C 21.389,456.005 41.084,432.134 49.833,443.748 C 52.249,446.956 52.29,450.791 49.157,453.139 C 46.196,455.377 42.783,455.132 38.996,450.096 L 37.938,448.702 L 23.123,459.867 L 24.672,461.914 C 33.858,474.102 44.223,473.133 56.902,463.579 C 70.4,453.411 73.505,442.302 64.081,429.772 C 47.887,408.29 27.148,432.829 18.4,421.214 C 16.414,418.594 15.963,414.922 19.266,412.439 C 22.228,410.214 25.79,412.043 28.404,415.496 L 29.455,416.888 L 43.78,406.106" style="fill: rgb(51, 51, 51);" clip-path="url(#XMLID_22_)" id="path205"/>
	<polyline id="polyline207" points="83.19,441.96 98.496,430.427 80.255,406.229 98.537,392.458 89.481,380.433 71.199,394.204 63.638,384.173 83.148,369.474 73.717,356.958 38.887,383.19 83.19,441.96" clip-path="url(#XMLID_22_)" style="fill: rgb(51, 51, 51);"/>
</g><polyline id="polyline209" points="123.664,411.469 159.231,384.678 149.8,372.149 129.546,387.408 120.743,375.725 139.011,361.953 129.955,349.943 111.688,363.714 104.112,353.655 123.623,338.956 114.191,326.454 79.375,352.686 123.664,411.469" style="fill: rgb(51, 51, 51);"/><polyline id="polyline211" points="187.408,363.428 202.715,351.895 158.419,293.125 143.119,304.658 187.408,363.428" style="fill: rgb(51, 51, 51);"/><path d="M 215.933,276.392 C 206.427,263.781 196.593,262.553 183.259,272.598 C 170.341,282.343 168.901,293.617 177.834,305.477 C 193.529,326.291 213.224,302.42 221.973,314.021 C 224.389,317.242 224.443,321.077 221.311,323.438 C 218.349,325.662 214.931,325.403 211.143,320.38 L 210.092,318.988 L 195.263,330.152 L 196.812,332.213 C 205.997,344.401 216.37,343.418 229.042,333.864 C 242.54,323.696 245.645,312.572 236.228,300.057 C 220.028,278.588 199.289,303.114 190.54,291.513 C 188.555,288.865 188.118,285.207 191.407,282.724 C 194.369,280.499 197.945,282.314 200.545,285.781 L 201.609,287.173 L 215.933,276.392" style="fill: rgb(51, 51, 51);" id="path213"/><polyline id="polyline215" points="255.329,312.247 270.649,300.727 252.409,276.515 270.676,262.744 261.621,250.733 243.339,264.491 235.778,254.459 255.289,239.76 245.857,227.23 211.041,253.477 255.329,312.247" style="fill: rgb(51, 51, 51);"/><polyline id="polyline217" points="295.817,281.755 331.371,254.95 321.94,242.435 301.693,257.708 292.882,246.011 311.165,232.239 302.109,220.216 283.827,234 276.252,223.955 295.762,209.242 286.345,196.74 251.515,222.972 295.817,281.755" style="fill: rgb(51, 51, 51);"/><polyline id="polyline219" points="359.548,233.727 374.868,222.194 330.565,163.411 315.259,174.958 359.548,233.727" style="fill: rgb(51, 51, 51);"/><path d="M 388.073,146.665 C 378.587,134.068 368.747,132.839 355.412,142.884 C 342.487,152.629 341.047,163.916 349.973,175.763 C 365.668,196.591 385.363,172.72 394.112,184.321 C 396.528,187.528 396.582,191.363 393.457,193.724 C 390.496,195.949 387.07,195.69 383.296,190.667 L 382.232,189.261 L 367.417,200.425 L 368.973,202.5 C 378.152,214.674 388.511,213.705 401.197,204.151 C 414.689,193.969 417.801,182.859 408.369,170.358 C 392.182,148.862 371.43,173.401 362.695,161.787 C 360.695,159.153 360.266,155.495 363.548,153.011 C 366.51,150.773 370.086,152.602 372.686,156.055 L 373.75,157.461 L 388.073,146.665" style="fill: rgb(51, 51, 51);" id="path221"/><g id="g223">
	<defs id="defs225">
		<rect width="673.44202" height="673.43597" x="63.652" y="76.526001" id="XMLID_13_"/>
	</defs>
	<clipPath id="XMLID_23_">
		<use id="use229" x="0" y="0" width="800" height="964.93799" xlink:href="#XMLID_13_"/>
	</clipPath>
	<polyline id="polyline231" points="427.475,182.546 442.789,171 424.555,146.801 442.816,133.03 433.76,121.006 415.493,134.791 407.917,124.732 427.428,110.033 417.997,97.53 383.18,123.763 427.475,182.546" clip-path="url(#XMLID_23_)" style="fill: rgb(51, 51, 51);"/>
	<polyline id="polyline233" points="467.963,152.028 503.517,125.237 494.093,112.735 473.846,127.98 465.029,116.297 483.304,102.526 474.249,90.515 455.966,104.273 448.405,94.241 467.916,79.542 458.484,67.026 423.654,93.258 467.963,152.028" clip-path="url(#XMLID_23_)" style="fill: rgb(51, 51, 51);"/>
	<polyline id="polyline235" points="531.708,104.014 547.007,92.467 502.719,33.697 487.399,45.23 531.708,104.014" clip-path="url(#XMLID_23_)" style="fill: rgb(51, 51, 51);"/>
	<path d="M 560.212,16.951 C 550.727,4.368 540.886,3.125 527.551,13.171 C 514.626,22.902 513.186,34.19 522.133,46.036 C 537.816,66.877 557.517,42.992 566.265,54.607 C 568.689,57.801 568.729,61.649 565.596,63.997 C 562.635,66.235 559.209,65.976 555.436,60.954 L 554.372,59.548 L 539.562,70.726 L 541.112,72.773 C 550.29,84.961 560.663,83.979 573.342,74.439 C 586.84,64.271 589.946,53.147 580.521,40.631 C 564.328,19.149 543.582,43.689 534.833,32.074 C 532.848,29.453 532.403,25.768 535.699,23.298 C 538.661,21.06 542.23,22.889 544.844,26.342 L 545.889,27.747 L 560.212,16.951" style="fill: rgb(51, 51, 51);" clip-path="url(#XMLID_23_)" id="path237"/>
	<path d="M 48.359,273.308 C 38.873,260.724 29.033,259.482 15.698,269.527 C 2.773,279.272 1.333,290.546 10.28,302.392 C 25.975,323.233 45.663,299.349 54.398,310.963 C 56.834,314.171 56.875,318.005 53.743,320.353 C 50.781,322.592 47.356,322.346 43.582,317.31 L 42.518,315.918 L 27.709,327.082 L 29.258,329.13 C 38.437,341.318 48.809,340.348 61.489,330.795 C 74.987,320.627 78.092,309.517 68.654,296.988 C 52.474,275.505 31.728,300.045 22.98,288.43 C 21.001,285.81 20.551,282.138 23.847,279.655 C 26.808,277.43 30.377,279.259 32.992,282.712 L 34.035,284.105 L 48.359,273.308" style="fill: rgb(51, 51, 51);" clip-path="url(#XMLID_23_)" id="path239"/>
	<polyline id="polyline241" points="87.775,309.189 103.075,297.643 84.841,273.444 103.123,259.673 94.061,247.648 75.785,261.419 68.21,251.389 87.721,236.689 78.297,224.174 43.473,250.406 87.775,309.189" clip-path="url(#XMLID_23_)" style="fill: rgb(51, 51, 51);"/>
</g><polyline id="polyline243" points="128.25,278.685 163.803,251.894 154.386,239.364 134.132,254.623 125.329,242.94 143.597,229.169 134.535,217.158 116.273,230.929 108.698,220.871 128.208,206.171 118.771,193.669 83.96,219.916 128.25,278.685" style="fill: rgb(51, 51, 51);"/><polyline id="polyline245" points="191.994,230.643 207.294,219.11 163.005,160.354 147.691,171.873 191.994,230.643" style="fill: rgb(51, 51, 51);"/><path d="M 220.505,143.607 C 211.013,130.996 201.172,129.768 187.845,139.813 C 174.927,149.558 173.487,160.832 182.419,172.692 C 198.115,193.506 217.803,169.635 226.551,181.236 C 228.973,184.457 229.028,188.278 225.896,190.653 C 222.935,192.877 219.508,192.618 215.721,187.595 L 214.678,186.203 L 199.849,197.368 L 201.397,199.429 C 210.583,211.617 220.948,210.634 233.627,201.08 C 247.126,190.912 250.231,179.788 240.806,167.273 C 224.612,145.804 203.874,170.33 195.125,158.729 C 193.139,156.081 192.688,152.423 195.992,149.94 C 198.953,147.715 202.53,149.53 205.129,152.997 L 206.18,154.389 L 220.505,143.607" style="fill: rgb(51, 51, 51);" id="path247"/><g id="g249">
	<defs id="defs251">
		<rect width="673.44202" height="673.43597" x="63.652" y="76.526001" id="XMLID_15_"/>
	</defs>
	<clipPath id="XMLID_24_">
		<use id="use255" x="0" y="0" width="800" height="964.93799" xlink:href="#XMLID_15_"/>
	</clipPath>
	<polyline id="polyline257" points="259.915,179.461 275.222,167.942 256.981,143.73 275.263,129.959 266.207,117.949 247.925,131.706 240.364,121.674 259.874,106.975 250.443,94.446 215.613,120.692 259.915,179.461" clip-path="url(#XMLID_24_)" style="fill: rgb(51, 51, 51);"/>
	<polyline id="polyline259" points="300.389,148.971 335.957,122.166 326.525,109.65 306.271,124.923 297.468,113.226 315.75,99.455 306.681,87.431 288.413,101.215 280.838,91.17 300.348,76.458 290.931,63.956 256.1,90.188 300.389,148.971" clip-path="url(#XMLID_24_)" style="fill: rgb(51, 51, 51);"/>
	<polyline id="polyline261" points="364.134,100.929 379.454,89.41 335.145,30.626 319.845,42.173 364.134,100.929" clip-path="url(#XMLID_24_)" style="fill: rgb(51, 51, 51);"/>
	<path d="M 392.659,13.88 C 383.153,1.282 373.333,0.054 359.985,10.113 C 347.067,19.844 345.627,31.131 354.559,42.978 C 370.255,63.805 389.95,39.935 398.698,51.536 C 401.114,54.743 401.169,58.578 398.036,60.94 C 395.075,63.178 391.655,62.905 387.868,57.897 L 386.817,56.477 L 372.002,67.642 L 373.551,69.717 C 382.736,81.891 393.088,80.922 405.781,71.368 C 419.265,61.186 422.384,50.076 412.953,37.575 C 396.766,16.079 376.013,40.618 367.265,29.017 C 365.279,26.37 364.842,22.712 368.132,20.228 C 371.093,17.989 374.67,19.818 377.269,23.271 L 378.334,24.69 L 392.659,13.88" style="fill: rgb(51, 51, 51);" clip-path="url(#XMLID_24_)" id="path263"/>
	<polyline id="polyline265" points="63.079,198.46 78.385,186.927 34.097,128.144 18.776,139.69 63.079,198.46" clip-path="url(#XMLID_24_)" style="fill: rgb(51, 51, 51);"/>
	<path d="M 91.59,111.397 C 82.097,98.814 72.264,97.585 58.929,107.63 C 45.997,117.375 44.577,128.634 53.504,140.495 C 69.2,161.323 88.894,137.437 97.643,149.053 C 100.058,152.274 100.099,156.095 96.987,158.456 C 94.019,160.681 90.6,160.435 86.812,155.413 L 85.761,154.008 L 70.932,165.172 L 72.481,167.233 C 81.666,179.407 92.032,178.452 104.711,168.884 C 118.21,158.717 121.315,147.607 111.897,135.091 C 95.696,113.595 74.958,138.135 66.209,126.534 C 64.223,123.9 63.773,120.242 67.076,117.744 C 70.038,115.506 73.614,117.348 76.214,120.802 L 77.264,122.194 L 91.59,111.397" style="fill: rgb(51, 51, 51);" clip-path="url(#XMLID_24_)" id="path267"/>
	<polyline id="polyline269" points="131,147.278 146.306,135.732 128.065,111.547 146.347,97.763 137.292,85.739 119.01,99.523 111.448,89.478 130.958,74.779 121.528,62.263 86.71,88.495 131,147.278" clip-path="url(#XMLID_24_)" style="fill: rgb(51, 51, 51);"/>
	<polyline id="polyline271" points="171.474,116.775 207.048,89.983 197.61,77.467 177.363,92.712 168.553,81.03 186.821,67.272 177.766,55.248 159.497,69.019 151.922,58.974 171.433,44.275 162.002,31.773 127.185,58.005 171.474,116.775" clip-path="url(#XMLID_24_)" style="fill: rgb(51, 51, 51);"/>
</g><g id="g273">
	<g id="g275">
		<g id="g277">
			
				<rect width="673.44202" height="673.43597" x="63.652" y="76.526001" style="fill: none; stroke: black; stroke-width: 13.9759; stroke-miterlimit: 3.864;" id="rect279"/>
			<path d="M 230.639,473.269 L 336.728,473.269 L 336.728,558.899 C 336.728,569.395 339.13,577.146 343.968,582.197 C 348.786,587.233 355.399,589.745 363.799,589.745 C 372.602,589.745 379.535,586.92 384.565,581.242 C 389.82,575.591 392.433,566.134 392.447,552.922 L 392.447,489.634 C 392.447,476.409 389.083,466.446 382.375,459.731 C 375.858,452.811 366.311,449.344 353.72,449.344 L 305.241,449.344 L 305.241,378.51 L 347.114,378.51 C 363.478,378.51 375.134,375.044 382.053,368.11 C 388.98,361.191 392.447,349.439 392.447,332.857 L 392.447,285.319 C 392.447,273.991 389.922,265.693 384.885,260.452 C 380.053,255.006 373.551,252.277 365.362,252.263 C 357.814,252.263 351.304,254.57 345.852,259.182 C 340.597,263.809 337.984,270.743 337.984,279.969 L 337.984,355.212 L 230.639,355.212 L 230.639,290.997 C 230.639,258.459 241.858,232.227 264.316,212.287 C 286.972,192.129 320.766,182.07 365.683,182.07 C 411.221,182.07 447.109,193.616 473.354,216.696 C 491.186,232.228 500.104,256.262 500.104,288.786 L 500.104,314.909 C 500.104,336.746 497.368,353.956 491.915,366.554 C 486.463,378.933 477.339,389.525 464.537,398.341 C 451.722,406.953 440.918,411.238 432.108,411.238 L 432.108,414.405 C 453.297,415.66 469.873,422.799 481.85,435.805 C 494.024,448.826 500.104,467.496 500.104,491.845 L 500.104,544.092 C 500.104,565.3 496.541,583.358 489.397,598.248 C 479.338,619.443 463.684,635.617 442.495,646.726 C 421.504,657.851 394.965,663.392 362.85,663.405 C 334.1,663.405 309.546,659.01 289.183,650.193 C 268.819,641.172 253.915,628.589 244.484,612.415 C 235.244,596.052 230.638,577.476 230.638,556.689 L 230.638,473.269" style="fill: white;" id="path281"/>
			<polyline id="polyline283" points="563.782,491.217 563.782,431.042 503.613,431.042 503.613,401.547 563.782,401.547 563.782,341.372 593.296,341.372 593.296,401.547 653.451,401.547 653.451,431.042 593.296,431.042 593.296,491.217 563.782,491.217" style="fill: white;"/>
			<rect width="673.44202" height="168.366" x="63.652" y="789.58301" id="rect285"/>
			
				<rect width="673.44202" height="168.366" x="63.652" y="789.58301" style="fill: none; stroke: black; stroke-width: 13.9759; stroke-miterlimit: 3.864;" id="rect287"/>
			<polyline id="polyline289" points="105.02,908.419 116.451,908.419 126.946,857.797 127.185,857.797 138.158,908.419 148.879,908.419 163.694,846.469 153.431,846.469 143.747,897.104 143.508,897.104 133.143,846.469 121.582,846.469 110.978,897.104 110.739,897.104 100.7,846.469 90.444,846.469 105.02,908.419" style="fill: white;"/>
			<polyline id="polyline291" points="180.632,908.419 192.062,908.419 202.558,857.797 202.796,857.797 213.756,908.419 224.484,908.419 239.313,846.469 229.042,846.469 219.359,897.104 219.134,897.104 208.748,846.469 197.194,846.469 186.582,897.104 186.344,897.104 176.312,846.469 166.055,846.469 180.632,908.419" style="fill: white;"/>
			<polyline id="polyline293" points="256.237,908.419 267.674,908.419 278.169,857.797 278.409,857.797 289.361,908.419 300.096,908.419 314.911,846.469 304.654,846.469 294.964,897.104 294.732,897.104 284.359,846.469 272.799,846.469 262.194,897.104 261.955,897.104 251.924,846.469 241.661,846.469 256.237,908.419" style="fill: white;"/>
			<rect width="10.734" height="12.257" x="320.418" y="896.16302" style="fill: white;" id="rect295"/>
			<path d="M 346.2,928.769 L 355.999,928.769 L 355.999,901.376 L 356.225,901.376 C 358.449,906.686 363.704,910.043 369.293,910.043 C 385.514,910.043 389.711,890.39 389.711,876.29 C 389.711,857.905 384.122,844.845 369.293,844.845 C 362.531,844.845 357.051,849.472 355.761,854.098 L 355.522,854.098 L 355.522,846.469 L 346.2,846.469 L 346.2,928.769 M 355.413,877.452 C 355.413,863.339 357.16,853.171 368.017,853.171 C 377.121,853.171 379.455,862.644 379.455,876.291 C 379.455,892.232 377.121,901.732 368.017,901.732 C 357.507,901.732 355.413,889.476 355.413,877.452 z " style="fill: white; fill-rule: evenodd;" id="path297"/>
			<path d="M 441.294,878.598 L 441.294,874.666 C 441.294,861.373 439.547,844.845 420.412,844.845 C 401.154,844.845 398.124,862.766 398.124,878.242 C 398.124,899.519 404.539,910.043 419.825,910.043 C 436.865,910.043 440.816,894.661 440.816,888.069 L 431.024,888.069 C 431.024,892.695 429.734,902.414 420.412,902.414 C 408.394,902.414 408.394,888.069 408.394,878.598 L 441.294,878.598 M 408.744,870.968 L 408.744,868.661 C 408.744,864.948 409.904,852.474 420.181,852.474 C 428.813,852.474 431.025,860.676 431.025,867.623 L 431.025,870.967 L 408.744,870.967 L 408.744,870.968 z " style="fill: white; fill-rule: evenodd;" id="path299"/>
			<path d="M 493.186,846.469 L 483.864,846.469 L 483.864,854.317 L 483.625,854.317 C 482.342,849.472 476.862,844.845 470.099,844.845 C 454.233,844.845 449.681,860.677 449.681,877.451 C 449.681,885.653 450.855,908.419 469.048,908.419 C 475.231,908.419 481.058,905.307 483.168,900.106 L 483.393,900.106 L 483.393,908.2 C 483.393,912.471 483.864,922.066 471.259,922.066 C 466.128,922.066 461.698,919.869 461.241,914.205 L 451.428,914.205 C 453.059,929.696 468.113,929.696 471.955,929.696 C 484.566,929.696 493.185,922.981 493.185,904.488 L 493.185,846.469 M 471.382,853.17 C 481.878,853.17 483.98,865.413 483.98,877.451 C 483.98,890.157 481.878,900.106 471.26,900.106 C 461.46,900.106 459.953,887.495 459.953,877.451 C 459.952,862.643 462.286,853.17 471.382,853.17 z " style="fill: white; fill-rule: evenodd;" id="path301"/>
			<path d="M 506.629,836.984 L 516.428,836.984 L 516.428,825.887 L 506.629,825.887 L 506.629,836.984 z M 506.629,908.419 L 516.428,908.419 L 516.428,846.469 L 506.629,846.469 L 506.629,908.419 z " style="fill: white; fill-rule: evenodd;" id="path303"/>
			<rect width="10.734" height="12.257" x="532.04199" y="896.16302" style="fill: white;" id="rect305"/>
			<path d="M 558.411,836.984 L 568.211,836.984 L 568.211,825.887 L 558.411,825.887 L 558.411,836.984 z M 558.411,908.419 L 568.211,908.419 L 568.211,846.469 L 558.411,846.469 L 558.411,908.419 z " style="fill: white; fill-rule: evenodd;" id="path307"/>
			<path d="M 581.613,908.419 L 591.413,908.419 L 591.413,865.658 C 591.413,856.637 598.524,853.17 603.778,853.17 C 612.635,853.17 612.991,860.922 612.991,865.658 L 612.991,908.419 L 622.784,908.419 L 622.784,864.5 C 622.784,857.211 622.784,844.846 606.337,844.846 C 600.284,844.846 593.746,848.094 591.175,853.744 L 590.949,853.744 L 590.949,846.47 L 581.613,846.47 L 581.613,908.419" style="fill: white;" id="path309"/>
			<path d="M 638.567,908.419 L 648.36,908.419 L 648.36,854.098 L 659.094,854.098 L 659.094,846.469 L 648.36,846.469 L 648.36,839.181 C 648.36,834.91 650.455,833.285 654.652,833.285 L 659.204,833.285 L 659.204,824.973 L 652.094,824.973 C 642.65,824.973 638.568,829.818 638.568,839.181 L 638.568,846.469 L 629.452,846.469 L 629.452,854.098 L 638.568,854.098 L 638.568,908.419" style="fill: white;" id="path311"/>
			<path d="M 685.088,902.415 C 675.057,902.415 673.07,890.854 673.07,877.452 C 673.07,864.035 675.178,852.475 685.088,852.475 C 695.583,852.475 697.568,864.035 697.568,877.452 C 697.569,890.854 695.474,902.415 685.088,902.415 M 662.814,877.452 C 662.814,894.893 667.243,910.044 685.327,910.044 C 703.288,910.044 707.847,894.894 707.847,877.452 C 707.847,859.995 703.411,844.846 685.327,844.846 C 667.352,844.845 662.814,859.995 662.814,877.452 z " style="fill: white; fill-rule: evenodd;" id="path313"/>
		</g>
	</g>
</g></g>
</svg>